<?xml version="1.0" standalone="no"?>
<!DOCTYPE svg PUBLIC "-//W3C//DTD SVG 20010904//EN"
 "http://www.w3.org/TR/2001/REC-SVG-20010904/DTD/svg10.dtd">
<svg version="1.0" xmlns="http://www.w3.org/2000/svg"
 width="200.000000pt" height="200.000000pt" viewBox="0 0 200.000000 200.000000"
 preserveAspectRatio="xMidYMid meet">
<metadata>
Created by potrace 1.14, written by Peter Selinger 2001-2017
</metadata>
<g transform="translate(0.000000,200.000000) scale(0.100000,-0.100000)"
fill="#000000" stroke="none">
<path d="M860 1963 c-25 -9 -64 -25 -87 -35 -24 -10 -47 -18 -52 -18 -24 0
-70 -72 -81 -127 -7 -32 -23 -98 -36 -148 -18 -68 -24 -119 -25 -208 -1 -96
-3 -116 -14 -107 -19 16 -64 -8 -72 -39 -4 -16 6 -59 29 -125 32 -93 38 -101
64 -106 28 -5 29 -8 37 -75 11 -98 34 -184 68 -255 26 -56 28 -68 26 -169 -1
-60 2 -104 6 -98 5 7 6 -8 3 -33 -5 -44 11 -230 21 -240 2 -3 11 4 19 14 17
24 18 68 2 113 -17 47 -4 63 78 94 78 29 252 138 319 200 25 23 61 63 80 89
34 46 35 50 35 142 0 60 6 111 16 141 15 43 19 47 48 47 45 0 60 20 92 128 22
76 25 97 16 117 -10 21 -16 24 -38 19 -22 -6 -25 -4 -21 12 10 32 11 193 2
304 -6 86 -13 115 -37 161 -36 70 -53 86 -158 138 -147 74 -255 94 -340 64z
m-16 -325 c-3 -5 -17 -8 -31 -6 -37 4 -55 -28 -28 -48 19 -15 19 -15 -6 -9
-16 4 -30 2 -34 -5 -11 -18 -4 -19 58 -7 32 7 55 16 50 20 -4 5 10 5 32 1 22
-4 46 -7 53 -7 6 0 12 -7 12 -14 0 -8 5 -11 12 -7 8 5 9 2 5 -9 -4 -11 -1 -17
9 -17 11 0 13 6 9 20 -4 11 -2 20 4 20 6 0 11 -7 11 -15 0 -8 8 -15 18 -14 10
0 12 3 5 6 -23 9 -14 20 13 17 30 -3 46 -14 21 -14 -10 0 -17 -5 -17 -11 0 -7
11 -9 30 -5 26 5 30 3 28 -12 -2 -11 4 -17 17 -18 11 -1 29 -5 40 -10 16 -7
10 -10 -30 -14 -49 -6 -49 -6 -22 -18 15 -6 27 -13 27 -16 0 -7 -54 1 -82 13
-16 6 -28 7 -28 3 0 -4 -18 -7 -39 -7 -22 0 -37 3 -35 7 3 5 0 8 -5 8 -6 0
-11 -4 -11 -8 0 -5 -13 -9 -30 -9 -20 0 -30 5 -31 16 0 9 -2 12 -5 6 -2 -5
-23 -9 -46 -8 -74 3 -175 -75 -178 -137 -3 -58 -1 -65 23 -75 12 -6 21 -16 20
-23 -2 -6 3 -9 11 -6 8 3 17 -1 22 -8 4 -7 4 -10 0 -7 -4 4 -21 -6 -38 -22
-19 -17 -36 -25 -42 -20 -6 5 -21 7 -34 6 -17 -1 -21 2 -17 14 4 9 11 61 17
116 9 95 30 161 46 151 4 -3 9 10 10 27 6 83 26 139 56 153 28 13 138 15 130
2z m333 -124 c-3 -3 -12 -4 -19 -1 -8 3 -5 6 6 6 11 1 17 -2 13 -5z m33 -74
c15 -23 12 -30 -10 -30 -11 0 -19 6 -17 13 1 6 -6 11 -15 11 -9 -1 -19 4 -21
10 -7 17 52 13 63 -4z m-249 -152 c0 -7 1 -44 1 -81 0 -76 -13 -102 -43 -86
-13 6 -19 6 -19 0 0 -6 -12 -14 -27 -17 -16 -4 -31 -12 -35 -18 -5 -8 -8 -7
-8 2 0 12 32 62 58 90 11 13 16 28 13 45 -1 4 6 10 16 14 14 6 15 7 1 12 -23
9 -5 51 22 51 11 0 20 -6 21 -12z m289 -111 c0 -5 -6 -7 -14 -4 -8 3 -16 2
-18 -4 -2 -5 -13 -11 -24 -13 -17 -3 -21 0 -17 14 3 13 14 17 39 17 19 -1 34
-5 34 -10z m-96 -12 c-3 -7 -14 -11 -25 -8 -23 6 -18 18 10 20 13 1 18 -3 15
-12z m-515 -31 c-9 -11 -8 -18 1 -29 11 -13 10 -14 -4 -9 -9 3 -16 12 -16 20
0 8 -5 14 -10 14 -6 0 -5 8 2 19 9 15 15 17 25 9 10 -8 10 -14 2 -24z m741 5
c0 -6 -4 -7 -10 -4 -5 3 -10 11 -10 16 0 6 5 7 10 4 6 -3 10 -11 10 -16z
m-785 -59 c-3 -5 -13 -10 -21 -10 -8 0 -12 5 -9 10 3 6 13 10 21 10 8 0 12 -4
9 -10z"/>
<path d="M1009 1507 c4 -4 18 -3 32 2 23 9 22 9 -8 8 -18 -1 -28 -6 -24 -10z"/>
<path d="M887 1497 c-4 -10 5 -14 36 -14 23 0 47 -1 52 -4 6 -2 10 0 10 6 0 5
-12 10 -26 11 -14 1 -35 4 -46 8 -13 4 -23 2 -26 -7z"/>
<path d="M1370 1833 c0 -3 11 -25 24 -47 28 -50 49 -194 47 -343 0 -82 3 -104
16 -115 9 -7 22 -28 30 -46 12 -28 11 -42 -7 -115 -37 -146 -58 -182 -116
-193 -36 -7 -44 -28 -44 -121 0 -41 7 -66 26 -99 28 -48 50 -64 85 -64 13 0
35 -12 51 -27 24 -23 39 -27 115 -33 83 -6 92 -9 161 -54 40 -26 75 -46 76
-44 12 13 53 104 72 161 51 148 57 364 15 522 -24 89 -83 221 -132 292 -50 73
-170 195 -186 189 -8 -3 -12 -2 -9 3 8 12 -43 49 -135 99 -77 42 -89 47 -89
35z"/>
<path d="M547 1804 c-15 -8 -25 -19 -22 -24 3 -6 0 -7 -8 -4 -19 7 -162 -102
-223 -169 -182 -203 -267 -463 -236 -729 11 -99 49 -233 87 -308 45 -91 200
-290 224 -290 4 0 18 24 31 52 24 52 174 218 198 218 23 0 82 62 82 86 0 13
-13 49 -29 81 -37 72 -71 193 -71 250 0 29 -4 43 -13 43 -27 0 -58 49 -88 140
-40 119 -36 161 15 206 35 30 36 33 36 106 0 86 14 178 35 228 9 19 19 56 24
83 9 52 4 56 -42 31z"/>
<path d="M1045 322 c-22 -25 -31 -40 -19 -32 27 19 79 80 67 80 -4 -1 -26 -22
-48 -48z"/>
<path d="M870 233 c-36 -37 -48 -52 -27 -35 36 31 103 102 95 102 -2 0 -33
-30 -68 -67z"/>
</g>
</svg>
